<svg width="42" height="42" viewBox="0 0 42 42" fill="none" xmlns="http://www.w3.org/2000/svg">
<path d="M40 17.2C39.9296 14.7091 39.6939 13.1207 38.8952 11.766C37.7581 9.8375 35.7121 8.764 31.6219 6.6208L27.8189 4.6258C24.4798 2.8759 22.8102 2 21.0152 2C19.2202 2 17.5506 2.874 14.2116 4.6258L10.4085 6.6208C6.31835 8.764 4.27232 9.8375 3.13521 11.766C2 13.6926 2 16.0923 2 20.8898V21.1121C2 25.9077 2 28.3074 3.13521 30.234C4.27232 32.1625 6.31835 33.236 10.4085 35.3811L14.2116 37.3742C17.5506 39.1241 19.2202 40 21.0152 40C22.8102 40 24.4798 39.126 27.8189 37.3742L31.6219 35.3792C35.7121 33.2341 37.7581 32.1625 38.8952 30.234C39.6939 28.8793 39.9296 27.2909 40 24.8M38.1289 12.45L30.5228 16.25M30.5228 16.25L29.5721 16.725L21.0152 21M30.5228 16.25V22.9M30.5228 16.25L12.4584 6.75M21.0152 21L3.90152 12.45M21.0152 21V39.05" stroke="#01F59D" stroke-width="3" stroke-linecap="round"/>
</svg>
