<svg width="41" height="28" viewBox="0 0 41 28" fill="none" xmlns="http://www.w3.org/2000/svg">
<path d="M2.27778 27.6668H38.7222C39.975 27.6668 41 26.6418 41 25.3891C41 24.1363 39.975 23.1113 38.7222 23.1113H2.27778C1.025 23.1113 0 24.1363 0 25.3891C0 26.6418 1.025 27.6668 2.27778 27.6668ZM2.27778 16.2779H38.7222C39.975 16.2779 41 15.2529 41 14.0002C41 12.7474 39.975 11.7224 38.7222 11.7224H2.27778C1.025 11.7224 0 12.7474 0 14.0002C0 15.2529 1.025 16.2779 2.27778 16.2779ZM0 2.61127C0 3.86405 1.025 4.88905 2.27778 4.88905H38.7222C39.975 4.88905 41 3.86405 41 2.61127C41 1.3585 39.975 0.333496 38.7222 0.333496H2.27778C1.025 0.333496 0 1.3585 0 2.61127Z" fill="white"/>
</svg>
