<svg width="28" height="32" viewBox="0 0 28 32" fill="none" xmlns="http://www.w3.org/2000/svg">
<path d="M1.979 2.77812V17.9729H10.8568C11.4646 17.9729 11.7705 17.9729 12.0156 18.1248C12.2588 18.2747 12.3965 18.5483 12.668 19.0932L13.5756 20.9044C13.8471 21.4515 13.9829 21.7229 14.228 21.8729C14.4731 22.0248 14.777 22.0248 15.3869 22.0248H25.2776C25.7558 22.0248 25.9948 22.0248 26.1427 21.8769C26.2906 21.729 26.2906 21.49 26.2906 21.0118V6.83006C26.2906 6.35193 26.2906 6.11286 26.1427 5.96497C25.9948 5.81707 25.7558 5.81707 25.2776 5.81707H15.3869C14.7791 5.81707 14.4731 5.81707 14.228 5.66512C13.9849 5.5152 13.8471 5.2417 13.5756 4.69671L12.668 2.8855C12.3965 2.33849 12.2608 2.06701 12.0156 1.91708C11.7705 1.76514 11.4666 1.76514 10.8568 1.76514H2.99199C2.51386 1.76514 2.2748 1.76514 2.1269 1.91303C1.979 2.06093 1.979 2.29999 1.979 2.77812Z" fill="#0E0227"/>
<path d="M1.979 17.9729V2.77812C1.979 2.29999 1.979 2.06093 2.1269 1.91303C2.2748 1.76514 2.51386 1.76514 2.99199 1.76514H10.8568C11.4646 1.76514 11.7705 1.76514 12.0156 1.91708C12.2588 2.06701 12.3965 2.34051 12.668 2.8855L13.5756 4.69671C13.8471 5.24372 13.9829 5.5152 14.228 5.66512C14.4731 5.81707 14.777 5.81707 15.3869 5.81707H25.2776C25.7558 5.81707 25.9948 5.81707 26.1427 5.96497C26.2906 6.11286 26.2906 6.35193 26.2906 6.83006V21.0118C26.2906 21.49 26.2906 21.729 26.1427 21.8769C25.9948 22.0248 25.7558 22.0248 25.2776 22.0248H15.3869C14.7791 22.0248 14.4731 22.0248 14.228 21.8729C13.9849 21.7229 13.8471 21.4494 13.5756 20.9044L12.668 19.0932C12.3965 18.5462 12.2608 18.2747 12.0156 18.1248C11.7705 17.9729 11.4666 17.9729 10.8568 17.9729H1.979ZM1.979 17.9729V30.1287" stroke="#0E0227" stroke-width="3.12259" stroke-linecap="round"/>
</svg>
